<?xml version="1.0" encoding="utf-8"?>
<!-- Generator: Adobe Illustrator 26.0.1, SVG Export Plug-In . SVG Version: 6.00 Build 0)  -->
<svg version="1.1" id="Layer_1" xmlns="http://www.w3.org/2000/svg" xmlns:xlink="http://www.w3.org/1999/xlink" x="0px" y="0px"
	 viewBox="0 0 117.8 122.9" style="enable-background:new 0 0 117.8 122.9;" xml:space="preserve">
<style type="text/css">
	.st0{fill:#009688;}
</style>
<path class="st0" d="M19.8,113.3c-0.3,1.3-0.9,2.5-1.7,3.4c-0.7,0.6-1.5,1.1-2.5,1.3L0,122.9c0.7-1.4,1.5-2.6,2.5-3.8
	c1.1-0.9,2.4-1.6,3.7-2c-1.1-0.6-2.1-1.5-2.9-2.4c-0.6-0.6-0.9-1.4-0.9-2.2c0-0.7,0.3-1.5,0.6-2.1c0.4-0.8,0.9-1.6,1.5-2.4
	c3.2-4.2,6.2-6.3,9.3-6.3c0.8,0,1.6,0.3,2.2,0.9c0.6,0.7,0.9,1.5,0.8,2.4c0,0.7-0.1,1.4-0.3,2c-0.4,0.9-0.8,1.7-1.3,2.5
	c-2.4-1.2-4-1.8-4.9-1.8c-0.9,0-1.8,0.2-2.6,0.6c-0.6,0.3-1.1,0.7-1.6,1.2c0,0.7,1.2,1.6,3.5,2.9s4,2,5,2
	C16.3,114.2,18.1,113.9,19.8,113.3L19.8,113.3z M20,67.2c0,4-0.5,8-1.6,11.8c-1.6,4.9-3.6,9.8-6,14.4L8,91.6c1.1-5,1.7-10,1.8-15.1
	c0-3-0.2-7.3-0.7-13S8,52.1,7.3,46.5s-1.9-12.3-3.6-20c-0.4-1.8-0.7-3.7-0.9-5.6c0-1.5,0.8-4,2.3-7.7s3.6-8,6.3-13.2l4.4,25.8
	c1.6,9.8,2.8,18.3,3.4,25.5C19.7,56.8,20,62.1,20,67.2L20,67.2z M35.9,109.6V89.2h20.4v20.4L35.9,109.6z M117.8,88.3h-33
	c-3.2,0-5.7-0.7-7.4-2c-2.1-1.7-3.1-4.4-3.1-8.1c0-2.2,0.1-4.5,0.3-6.9s0.6-5,1-7.5l3-0.2c0.3,1.6,1.2,2.9,2.6,3.7
	c1.5,0.8,3.1,1.2,4.8,1.1h24.9c-1.1-7.1-3.1-12.8-5.8-17.1c-2.5-3.7-5.7-6.9-9.5-9.2l5.3-22.7c6.2,4.6,10.8,10.9,13.3,18.2
	c2.4,6.8,3.6,15.9,3.6,27.2L117.8,88.3L117.8,88.3z"/>
</svg>
